<mxfile host="app.diagrams.net" modified="2021-05-13T11:58:43.171Z" agent="5.0 (Windows NT 10.0; WOW64) AppleWebKit/537.36 (KHTML, like Gecko) Chrome/90.0.4430.93 Safari/537.36" etag="bQS-8SEMRw7dvOLFipLb" version="14.6.11" type="github">
  <diagram id="o5OIxJ2UJ5M32tqZxoBe" name="Page-1">
    <mxGraphModel dx="327" dy="181" grid="1" gridSize="10" guides="1" tooltips="1" connect="1" arrows="1" fold="1" page="1" pageScale="1" pageWidth="1169" pageHeight="827" math="0" shadow="0">
      <root>
        <mxCell id="0" />
        <mxCell id="1" parent="0" />
        <mxCell id="b3525UdkQLKAm1ibnJpJ-2" value="" style="endArrow=none;html=1;rounded=0;" edge="1" parent="1">
          <mxGeometry width="50" height="50" relative="1" as="geometry">
            <mxPoint as="sourcePoint" />
            <mxPoint x="60" as="targetPoint" />
          </mxGeometry>
        </mxCell>
        <mxCell id="b3525UdkQLKAm1ibnJpJ-3" value="" style="endArrow=none;html=1;rounded=0;" edge="1" parent="1">
          <mxGeometry width="50" height="50" relative="1" as="geometry">
            <mxPoint x="60" y="20" as="sourcePoint" />
            <mxPoint x="60" as="targetPoint" />
          </mxGeometry>
        </mxCell>
        <mxCell id="b3525UdkQLKAm1ibnJpJ-4" value="" style="endArrow=none;html=1;rounded=0;" edge="1" parent="1">
          <mxGeometry width="50" height="50" relative="1" as="geometry">
            <mxPoint y="120" as="sourcePoint" />
            <mxPoint as="targetPoint" />
          </mxGeometry>
        </mxCell>
        <mxCell id="b3525UdkQLKAm1ibnJpJ-5" value="" style="endArrow=none;html=1;rounded=0;" edge="1" parent="1">
          <mxGeometry width="50" height="50" relative="1" as="geometry">
            <mxPoint y="120" as="sourcePoint" />
            <mxPoint x="30" y="120" as="targetPoint" />
          </mxGeometry>
        </mxCell>
        <mxCell id="b3525UdkQLKAm1ibnJpJ-6" value="" style="endArrow=none;html=1;rounded=0;" edge="1" parent="1">
          <mxGeometry width="50" height="50" relative="1" as="geometry">
            <mxPoint x="30" y="20" as="sourcePoint" />
            <mxPoint x="60" y="20" as="targetPoint" />
            <Array as="points">
              <mxPoint x="60" y="20" />
            </Array>
          </mxGeometry>
        </mxCell>
        <mxCell id="b3525UdkQLKAm1ibnJpJ-7" value="" style="endArrow=none;html=1;rounded=0;" edge="1" parent="1">
          <mxGeometry width="50" height="50" relative="1" as="geometry">
            <mxPoint x="30" y="120" as="sourcePoint" />
            <mxPoint x="30" y="20" as="targetPoint" />
          </mxGeometry>
        </mxCell>
        <mxCell id="b3525UdkQLKAm1ibnJpJ-10" value="" style="endArrow=none;html=1;strokeWidth=1;dashed=1;dashPattern=1 2;" edge="1" parent="1">
          <mxGeometry width="50" height="50" relative="1" as="geometry">
            <mxPoint x="60" y="120" as="sourcePoint" />
            <mxPoint x="60" y="20" as="targetPoint" />
          </mxGeometry>
        </mxCell>
        <mxCell id="b3525UdkQLKAm1ibnJpJ-11" value="" style="endArrow=none;dashed=1;html=1;dashPattern=1 3;strokeWidth=1;" edge="1" parent="1">
          <mxGeometry width="50" height="50" relative="1" as="geometry">
            <mxPoint x="60" y="120" as="sourcePoint" />
            <mxPoint x="30" y="120" as="targetPoint" />
          </mxGeometry>
        </mxCell>
      </root>
    </mxGraphModel>
  </diagram>
</mxfile>
